<?xml version="1.0" encoding="UTF-8" standalone="no" ?>
<!DOCTYPE svg PUBLIC "-//W3C//DTD SVG 1.1//EN" "http://www.w3.org/Graphics/SVG/1.1/DTD/svg11.dtd">
<svg xmlns="http://www.w3.org/2000/svg" xmlns:xlink="http://www.w3.org/1999/xlink" version="1.1" width="24" height="24" viewBox="0 0 24 24" xml:space="preserve">
<desc>Created with Fabric.js 4.6.0</desc>
<defs>
</defs>
<g transform="matrix(0.04 0 0 0.04 12 11.97)" id="a7-u9M8ssNxvKmZ6ZKVUk"  >
<g style="" vector-effect="non-scaling-stroke"   >
		<g transform="matrix(1 0 0 1 3.5 34.67)" id="lhUfdOuGKE8W-vOGDtil2"  >
<path style="stroke: none; stroke-width: 1; stroke-dasharray: none; stroke-linecap: butt; stroke-dashoffset: 0; stroke-linejoin: miter; stroke-miterlimit: 4; fill: rgb(238,231,229); fill-rule: nonzero; opacity: 1;" vector-effect="non-scaling-stroke"  transform=" translate(-303.5, -334.67)" d="M 398.674 290.852 C 397.81699999999995 290.42499999999995 396.947 290.00899999999996 396.08 289.592 C 458.745 221.70799999999997 437.15999999999997 136.831 391.423 96.47399999999999 C 354.103 63.54299999999999 229.011 41.90299999999999 182.129 146.326 C 152.66899999999998 211.94299999999998 172.51 265.777 210.952 298.39300000000003 C 179.81 316.35600000000005 153.855 341.136 142.68599999999998 372.02000000000004 C 127.40699999999998 414.266 99.25499999999998 489.562 183.56199999999998 562.777 C 269.85699999999997 637.716 469.448 599.3230000000001 481.052 449.23100000000005 C 485.304 394.218 447.712 315.235 398.674 290.852 z" stroke-linecap="round" />
</g>
		<g transform="matrix(1 0 0 1 6.51 30.33)" id="eyT1s4ek6p1IBzMvVPwtJ"  >
<path style="stroke: none; stroke-width: 1; stroke-dasharray: none; stroke-linecap: butt; stroke-dashoffset: 0; stroke-linejoin: miter; stroke-miterlimit: 4; fill: rgb(137,83,96); fill-rule: nonzero; opacity: 1;" vector-effect="non-scaling-stroke"  transform=" translate(-306.51, -330.33)" d="M 523.968 318.21 C 523.968 318.21 487.84299999999996 354.599 466.88599999999997 373.955 C 464.05899999999997 367.08099999999996 460.866 360.317 457.34799999999996 353.77099999999996 C 478.02399999999994 334.04799999999994 509.85999999999996 305.037 509.85999999999996 305.037 L 523.968 318.21 z M 287.241 159.856 C 283.602 159.999 275.501 162.506 274.74399999999997 172.353 C 273.986 182.199 293.577 188.219 298.22299999999996 176.14000000000001 C 302.009 166.294 296.708 159.478 287.241 159.856 z M 394.208 159.998 C 390.76800000000003 160.135 383.101 162.50699999999998 382.386 171.82299999999998 C 381.66900000000004 181.13599999999997 400.204 186.83299999999997 404.59700000000004 175.40499999999997 C 408.179 166.089 403.166 159.64 394.208 159.998 z M 381.531 365.445 C 378.28000000000003 365.574 373.29200000000003 368.332 372.615 377.129 C 371.937 385.927 387.055 390.704 391.351 379.968 C 393.621 374.29 389.99 365.107 381.531 365.445 z M 396.86 419.947 C 393.60900000000004 420.076 388.62100000000004 422.833 387.944 431.63100000000003 C 387.266 440.42900000000003 402.384 445.20500000000004 406.67900000000003 434.47 C 408.95 428.793 405.317 419.609 396.86 419.947 z M 400.834 480.127 C 397.583 480.255 392.596 483.01300000000003 391.919 491.81100000000004 C 391.24 500.60900000000004 406.358 505.38500000000005 410.65299999999996 494.64900000000006 C 412.925 488.972 409.292 479.788 400.834 480.127 z M 358.54 258.698 C 360.17 257.207 360.28200000000004 254.677 358.791 253.04699999999997 C 357.29999999999995 251.41699999999994 354.77 251.30499999999998 353.14 252.79599999999996 C 331.36699999999996 272.715 306.658 267.37499999999994 292.11699999999996 256.75399999999996 C 281.66099999999994 249.11499999999995 276.67499999999995 236.01599999999996 276.56699999999995 235.72999999999996 C 275.80499999999995 233.65699999999995 273.5079999999999 232.59199999999996 271.43499999999995 233.35499999999996 C 269.36099999999993 234.11599999999996 268.29699999999997 236.41499999999996 269.05799999999994 238.48799999999997 C 269.28999999999996 239.11999999999998 274.88199999999995 254.06999999999996 287.3979999999999 263.21399999999994 C 296.0959999999999 269.5679999999999 307.89699999999993 274.3109999999999 320.7489999999999 274.3109999999999 C 332.986 274.31 346.179 270.007 358.54 258.698 z M 171.529 384.561 C 155.112 369.371 100.40899999999999 326.923 100.40899999999999 326.923 L 89.05 342.529 C 89.05 342.529 139.87099999999998 386.202 157.599 399.774 C 160.14399999999998 401.722 165.28099999999998 405.154 170.32 398.16 C 172.367 395.317 176.259 388.938 171.529 384.561 z" stroke-linecap="round" />
</g>
		<g transform="matrix(1 0 0 1 -13.94 -47.64)" id="F60dKreOaW6nDGOBqD9O7"  >
<path style="stroke: none; stroke-width: 1; stroke-dasharray: none; stroke-linecap: butt; stroke-dashoffset: 0; stroke-linejoin: miter; stroke-miterlimit: 4; fill: rgb(212,63,104); fill-rule: nonzero; opacity: 1;" vector-effect="non-scaling-stroke"  transform=" translate(-286.06, -252.36)" d="M 358.24 184.013 C 375.089 189.55 406.491 204.10500000000002 429.837 215.096 C 447.162 223.251 459.941 228.178 459.625 232.669 C 459.158 239.29700000000003 384.696 234.335 346.584 231.745 C 344.177 231.58 336.622 229.899 333.266 224.529 C 327.71700000000004 215.648 332.15700000000004 190.119 346.584 184.56799999999998 C 348.999 183.642 351.822 181.905 358.24 184.013 z M 397.217 282.129 C 350.219 313.65200000000004 307.09 319.307 273.27099999999996 315.58500000000004 C 273.34799999999996 315.43500000000006 273.42199999999997 315.28000000000003 273.49999999999994 315.13100000000003 C 273.49999999999994 315.13100000000003 257.58099999999996 305.27200000000005 238.19199999999995 307.90200000000004 C 214.55099999999996 300.04300000000006 200.59399999999994 289.69900000000007 200.59399999999994 289.69900000000007 C 188.67199999999994 303.32400000000007 187.72499999999994 314.11100000000005 187.72499999999994 314.11100000000005 C 199.73499999999993 322.33200000000005 211.47599999999994 328.86400000000003 222.89299999999994 333.95900000000006 C 206.70399999999995 365.3810000000001 182.04999999999995 422.40600000000006 175.23499999999996 488.855 C 175.23499999999996 488.855 192.56999999999996 507.05600000000004 240.23899999999998 504.457 C 240.23899999999998 504.457 239.67899999999997 488.044 240.926 463.734 C 264.972 468.631 285.31 459.387 285.31 459.387 C 275.029 426.83 276.039 378.094 277.925 348.637 C 358.048 355.819 411.978 299.159 411.978 299.159 C 408.76 287.806 397.217 282.129 397.217 282.129 z M 392.058 72.754 C 392.058 72.754 355.84 -14.930999999999997 230.03 2.225999999999999 C 134.128 15.302 112.482 157.898 112.482 164.253 C 112.482 170.607 152.512 130.576 160.137 150.908 C 160.136 150.908 234.478 77.838 392.058 72.754 z" stroke-linecap="round" />
</g>
		<g transform="matrix(1 0 0 1 0 -80.58)" id="wJObTPEVCxZeAED3dGwpZ"  >
<path style="stroke: none; stroke-width: 1; stroke-dasharray: none; stroke-linecap: butt; stroke-dashoffset: 0; stroke-linejoin: miter; stroke-miterlimit: 4; fill: rgb(255,183,63); fill-rule: nonzero; opacity: 1;" vector-effect="non-scaling-stroke"  transform=" translate(-300, -219.42)" d="M 75.5 357.046 C 1.7129999999999939 352.356 -8.959999999999994 283.882 19.122999999999998 260.995 C 47.205999999999996 238.108 82.44399999999999 282.982 82.44399999999999 282.982 C 75.86599999999999 266.62800000000004 93.94399999999999 246.11200000000002 104.594 267.68600000000004 C 115.243 289.26000000000005 110.943 319.53000000000003 110.943 319.53000000000003 L 127.251 331.26000000000005 C 118.879 356.30800000000005 95.464 370.61400000000003 95.464 370.61400000000003 L 75.5 357.046 z M 532.231 331.523 C 604.9 317.89700000000005 607.17 248.63500000000002 576.514 229.33200000000002 C 545.856 210.02900000000002 516.3340000000001 258.853 516.3340000000001 258.853 C 520.8750000000001 241.822 500.43800000000005 223.654 492.48800000000006 246.364 C 484.5400000000001 269.073 492.48800000000006 298.595 492.48800000000006 298.595 L 477.72700000000003 312.22 C 489.08200000000005 336.064 514.062 347.41900000000004 514.062 347.41900000000004 L 532.231 331.523 z M 392.058 72.754 C 254.176 46.06700000000001 158.44199999999998 146.251 158.44199999999998 146.251 C 163.40399999999997 165.851 171.99699999999999 175.90300000000002 171.99699999999999 175.90300000000002 C 285.614 60.164000000000016 404.131 108.97400000000002 404.131 108.97400000000002 C 406.037 88.004 392.058 72.754 392.058 72.754 z M 129.213 188.611 C 133.629 182.081 143.178 159.166 115.548 149.958 C 87.917 140.752 78.287 184.48 97.019 193.695 C 115.751 202.907 125.063 194.747 129.213 188.611 z" stroke-linecap="round" />
</g>
</g>
</g>
</svg>